<svg width="200" height="200" viewBox="34 14 152 152" fill="none" xmlns="http://www.w3.org/2000/svg">
  <style>
    .base-bottom { fill: #393939; }
    .base-left { fill: #1A1A1A; }
    .base-right { fill: #171717; }
    .mid-top { fill: #525252; }
    .mid-left { fill: #393939; }
    .mid-right { fill: #1A1A1A; }
    .top-face { fill: #FFFFFF; stroke: #525252; }
    .top-left { fill: #F5F5F5; stroke: #525252; }
    .top-right { fill: #D3D3D3; stroke: #525252; }
    .crown { fill: #1A1A1A; stroke: #171717; }

    @media (prefers-color-scheme: dark) {
      .base-bottom { fill: #FFFFFF; }
      .base-left { fill: #F5F5F5; }
      .base-right { fill: #D3D3D3; }
      .mid-top { fill: #D3D3D3; }
      .mid-left { fill: #A3A3A3; }
      .mid-right { fill: #525252; }
      .top-face { fill: #1A1A1A; stroke: #FFFFFF; }
      .top-left { fill: #393939; stroke: #FFFFFF; }
      .top-right { fill: #171717; stroke: #FFFFFF; }
      .crown { fill: #FFFFFF; stroke: #F5F5F5; }
    }
  </style>

  <path class="base-bottom" d="M40 110L100 140L160 110L100 80L40 110Z"/>
  <path class="base-left" d="M40 110V130L100 160V140L40 110Z"/>
  <path class="base-right" d="M160 110V130L100 160V140L160 110Z"/>

  <path class="mid-top" d="M40 90L100 120L160 90L100 60L40 90Z"/>
  <path class="mid-left" d="M40 90V110L100 140V120L40 90Z"/>
  <path class="mid-right" d="M160 90V110L100 140V120L160 90Z"/>

  <g transform="translate(20, -20)">
    <path class="top-face" d="M40 70L100 100L160 70L100 40L40 70Z" stroke-width="0.5"/>
    <path class="top-left" d="M40 70V90L100 120V100L40 70Z" stroke-width="0.5"/>
    <path class="top-right" d="M160 70V90L100 120V100L160 70Z" stroke-width="0.5"/>
    <path class="crown" d="M 80 78 L 70 62 L 90 70 L 100 50 L 110 70 L 130 62 L 120 78 Z" stroke-width="0.5" stroke-linejoin="round"/>
  </g>
</svg>
