<svg width="200" height="200" viewBox="0 0 200 200" fill="none" xmlns="http://www.w3.org/2000/svg">
  <path d="M40 110L100 140L160 110L100 80L40 110Z" fill="#4b5563"/>
  <path d="M40 110V130L100 160V140L40 110Z" fill="#374151"/>
  <path d="M160 110V130L100 160V140L160 110Z" fill="#1f2937"/> 
  
  <path d="M40 90L100 120L160 90L100 60L40 90Z" fill="#9ca3af"/>
  <path d="M40 90V110L100 140V120L40 90Z" fill="#6b7280"/>
  <path d="M160 90V110L100 140V120L160 90Z" fill="#4b5563"/>
  
  <g transform="translate(20, -20)">
    <path d="M40 70L100 100L160 70L100 40L40 70Z" fill="#f3f4f6"/>
    <path d="M40 70V90L100 120V100L40 70Z" fill="#d1d5db"/>
    <path d="M160 70V90L100 120V100L160 70Z" fill="#9ca3af"/>
    
    <path d="M 80 78 
             L 70 62 
             L 90 70 
             L 100 50 
             L 110 70 
             L 130 62 
             L 120 78 
             Z" 
          fill="#374151" 
          stroke="#1f2937" 
          stroke-width="0" 
          stroke-linejoin="round"/>
  </g>
</svg>